<?xml version="1.0" encoding="UTF-8" standalone="no"?>
<svg
   xmlns:dc="http://purl.org/dc/elements/1.1/"
   xmlns:cc="http://creativecommons.org/ns#"
   xmlns:rdf="http://www.w3.org/1999/02/22-rdf-syntax-ns#"
   xmlns:svg="http://www.w3.org/2000/svg"
   xmlns="http://www.w3.org/2000/svg"
   xmlns:xlink="http://www.w3.org/1999/xlink"
   xmlns:sodipodi="http://sodipodi.sourceforge.net/DTD/sodipodi-0.dtd"
   xmlns:inkscape="http://www.inkscape.org/namespaces/inkscape"
   sodipodi:docname="cube.svg"
   inkscape:version="1.0 (4035a4fb49, 2020-05-01)"
   id="svg1178"
   version="1.1"
   viewBox="0 0 618.80578 232.88626"
   height="232.88626mm"
   width="618.80579mm">
  <defs
     id="defs1172">
    <clipPath
       clipPathUnits="userSpaceOnUse"
       id="clipPath1202">
      <path
         d="m 10000,8135.3 -810.91,468.3 66.91,-38.6 -1443.72,1506.4 -670.53,2290 v 725.2 L 8462.41,12324 C 8148.15,11078.7 9118.99,9182.9 10000,8565 v -429.7"
         id="path1200" />
    </clipPath>
    <linearGradient
       x1="0"
       y1="0"
       x2="1"
       y2="0"
       gradientUnits="userSpaceOnUse"
       gradientTransform="matrix(3806,-310.361,-310.361,-3806,6302.9,10795.9)"
       spreadMethod="pad"
       id="linearGradient1210">
      <stop
         style="stop-opacity:1;stop-color:#76f3ed"
         offset="0"
         id="stop1204" />
      <stop
         style="stop-opacity:1;stop-color:#24bdc3"
         offset="0.464824"
         id="stop1206" />
      <stop
         style="stop-opacity:1;stop-color:#095bcb"
         offset="1"
         id="stop1208" />
    </linearGradient>
    <clipPath
       clipPathUnits="userSpaceOnUse"
       id="clipPath1220">
      <path
         d="m 11537.6,12323.9 c -45.7,181 -118.6,348.5 -222.9,496.1 -269.7,443.7 -757.6,740 -1314.7,740 -557.11,0 -1045.02,-296.3 -1314.7,-740 -104.28,-147.6 -177.19,-314.9 -222.89,-496 l -1320.66,762.6 651.35,376.1 2206.9,448.9 2206.9,-448.9 -1149.9,663.9 h 0.1 l 1148.7,-663 652.9,-377 -1321.1,-762.7"
         id="path1218" />
    </clipPath>
    <linearGradient
       x1="0"
       y1="0"
       x2="1"
       y2="0"
       gradientUnits="userSpaceOnUse"
       gradientTransform="matrix(1764.16,-2809.58,-2809.58,-1764.16,9094.55,14529)"
       spreadMethod="pad"
       id="linearGradient1228">
      <stop
         style="stop-opacity:1;stop-color:#ff82fd"
         offset="0"
         id="stop1222" />
      <stop
         style="stop-opacity:1;stop-color:#ff82fd"
         offset="0.00455912"
         id="stop1224" />
      <stop
         style="stop-opacity:1;stop-color:#4a0e88"
         offset="1"
         id="stop1226" />
    </linearGradient>
    <clipPath
       clipPathUnits="userSpaceOnUse"
       id="clipPath1238">
      <path
         d="M 10000,8135.3 V 8565 c 881,617.9 1851.9,2513.6 1537.6,3758.9 l 1321.1,762.7 v -723.8 l -671,-2291.4 L 10744,8565 l 1206.6,696.6 v 0 l 908.1,524.3 -1270.3,-733.5 -1588.4,-917.1"
         id="path1236" />
    </clipPath>
    <linearGradient
       x1="0"
       y1="0"
       x2="1"
       y2="0"
       gradientUnits="userSpaceOnUse"
       gradientTransform="matrix(-3473.86,-228.687,-228.687,3473.86,13128.5,10722.8)"
       spreadMethod="pad"
       id="linearGradient1244">
      <stop
         style="stop-opacity:1;stop-color:#ffd824"
         offset="0"
         id="stop1240" />
      <stop
         style="stop-opacity:1;stop-color:#eb3939"
         offset="1"
         id="stop1242" />
    </linearGradient>
    <clipPath
       clipPathUnits="userSpaceOnUse"
       id="clipPath1254">
      <path
         d="m 10000,8565 c -881.01,617.9 -1851.85,2513.7 -1537.59,3759 l 26.71,-15.5 c -17.43,-92.6 -26.55,-188.2 -26.55,-285.9 0,-43.3 2.24,-86 5.73,-128.4 l -0.04,0.1 0.2,-2.1 c 1.31,-15.6 2.77,-31.1 4.55,-46.6 C 8573.53,10815.6 9363.93,9420 10000,8910.7 V 8565"
         id="path1252" />
    </clipPath>
    <linearGradient
       x1="0"
       y1="0"
       x2="1"
       y2="0"
       gradientUnits="userSpaceOnUse"
       gradientTransform="matrix(3806,-310.361,-310.361,-3806,6302.9,10795.9)"
       spreadMethod="pad"
       id="linearGradient1262">
      <stop
         style="stop-opacity:1;stop-color:#5ec2be"
         offset="0"
         id="stop1256" />
      <stop
         style="stop-opacity:1;stop-color:#1d979c"
         offset="0.464824"
         id="stop1258" />
      <stop
         style="stop-opacity:1;stop-color:#0749a2"
         offset="1"
         id="stop1260" />
    </linearGradient>
    <clipPath
       clipPathUnits="userSpaceOnUse"
       id="clipPath1272">
      <path
         d="m 11510.9,12308.4 c -34.6,184.3 -102.2,356.9 -196.2,511.6 104.3,-147.6 177.2,-315.1 222.9,-496.1 l -26.7,-15.5 m -3021.78,0.1 -26.71,15.5 c 45.7,181.1 118.61,348.4 222.89,496 -94.02,-154.6 -161.52,-327.3 -196.18,-511.5"
         id="path1270" />
    </clipPath>
    <linearGradient
       x1="0"
       y1="0"
       x2="1"
       y2="0"
       gradientUnits="userSpaceOnUse"
       gradientTransform="matrix(1764.16,-2809.58,-2809.58,-1764.16,9094.55,14529)"
       spreadMethod="pad"
       id="linearGradient1278">
      <stop
         style="stop-opacity:1;stop-color:#cc68ca"
         offset="0"
         id="stop1274" />
      <stop
         style="stop-opacity:1;stop-color:#3b0b6d"
         offset="1"
         id="stop1276" />
    </linearGradient>
    <clipPath
       clipPathUnits="userSpaceOnUse"
       id="clipPath1288">
      <path
         d="m 10000,8565 v 0 345.7 c 636.1,509.3 1426.5,1904.9 1527,2934.9 1.8,15.5 3.2,31 4.5,46.6 l 0.2,2.1 v -0.1 c 3.5,42.4 5.7,85.1 5.7,128.4 0,97.7 -9.1,193.2 -26.5,285.8 l 26.7,15.5 C 11851.9,11078.6 10881,9182.9 10000,8565"
         id="path1286" />
    </clipPath>
    <linearGradient
       x1="0"
       y1="0"
       x2="1"
       y2="0"
       gradientUnits="userSpaceOnUse"
       gradientTransform="matrix(-3473.86,-228.687,-228.687,3473.86,13128.5,10722.8)"
       spreadMethod="pad"
       id="linearGradient1294">
      <stop
         style="stop-opacity:1;stop-color:#ccad1d"
         offset="0"
         id="stop1290" />
      <stop
         style="stop-opacity:1;stop-color:#bc2e2e"
         offset="1"
         id="stop1292" />
    </linearGradient>
    <clipPath
       clipPathUnits="userSpaceOnUse"
       id="clipPath1308">
      <path
         d="m 10000,11262.9 c -419.54,0 -759.64,340.1 -759.64,759.7 0,419.5 340.1,759.6 759.64,759.6 419.5,0 759.6,-340.1 759.6,-759.6 0,-419.6 -340.1,-759.7 -759.6,-759.7"
         id="path1306" />
    </clipPath>
    <linearGradient
       x1="0"
       y1="0"
       x2="1"
       y2="0"
       gradientUnits="userSpaceOnUse"
       gradientTransform="matrix(2474.72,2192.94,2192.94,-2474.72,8858.31,11010.9)"
       spreadMethod="pad"
       id="linearGradient1314">
      <stop
         style="stop-opacity:1;stop-color:#808080"
         offset="0"
         id="stop1310" />
      <stop
         style="stop-opacity:1;stop-color:#000000"
         offset="1"
         id="stop1312" />
    </linearGradient>
    <clipPath
       clipPathUnits="userSpaceOnUse"
       id="clipPath1324">
      <path
         d="m 12858.7,9785.9 -0.5,985.2 -670.5,-699.7 671,2291.4 V 9785.9"
         id="path1322" />
    </clipPath>
    <linearGradient
       x1="0"
       y1="0"
       x2="1"
       y2="0"
       gradientUnits="userSpaceOnUse"
       gradientTransform="matrix(-3473.86,-228.687,-228.687,3473.86,13128.5,10722.8)"
       spreadMethod="pad"
       id="linearGradient1330">
      <stop
         style="stop-opacity:1;stop-color:#ffde45"
         offset="0"
         id="stop1326" />
      <stop
         style="stop-opacity:1;stop-color:#ee5757"
         offset="1"
         id="stop1328" />
    </linearGradient>
    <clipPath
       clipPathUnits="userSpaceOnUse"
       id="clipPath1342">
      <path
         d="m 7812.28,10071.4 -670.53,699.7 v 1590.3 l 670.53,-2290"
         id="path1340" />
    </clipPath>
    <linearGradient
       x1="0"
       y1="0"
       x2="1"
       y2="0"
       gradientUnits="userSpaceOnUse"
       gradientTransform="matrix(3806,-310.361,-310.361,-3806,6302.9,10795.9)"
       spreadMethod="pad"
       id="linearGradient1350">
      <stop
         style="stop-opacity:1;stop-color:#8af5f0"
         offset="0"
         id="stop1344" />
      <stop
         style="stop-opacity:1;stop-color:#45c7cc"
         offset="0.464824"
         id="stop1346" />
      <stop
         style="stop-opacity:1;stop-color:#2e73d3"
         offset="1"
         id="stop1348" />
    </linearGradient>
    <clipPath
       clipPathUnits="userSpaceOnUse"
       id="clipPath1362">
      <path
         d="m 7793.1,13462.7 1149.93,663.9 1056.97,-215 -2206.9,-448.9"
         id="path1360" />
    </clipPath>
    <linearGradient
       x1="0"
       y1="0"
       x2="1"
       y2="0"
       gradientUnits="userSpaceOnUse"
       gradientTransform="matrix(1764.16,-2809.58,-2809.58,-1764.16,9094.55,14529)"
       spreadMethod="pad"
       id="linearGradient1368">
      <stop
         style="stop-opacity:1;stop-color:#ff8ffd"
         offset="0"
         id="stop1364" />
      <stop
         style="stop-opacity:1;stop-color:#5c2794"
         offset="1"
         id="stop1366" />
    </linearGradient>
    <clipPath
       clipPathUnits="userSpaceOnUse"
       id="clipPath1380">
      <path
         d="m 11057,14126.6 -1057,610.2 1057.1,-610.2 h -0.1"
         id="path1378" />
    </clipPath>
    <clipPath
       clipPathUnits="userSpaceOnUse"
       id="clipPath1396">
      <path
         d="m 12206.9,13462.7 -2206.9,448.9 1057,215 1149.9,-663.9"
         id="path1394" />
    </clipPath>
    <clipPath
       clipPathUnits="userSpaceOnUse"
       id="clipPath1414">
      <path
         d="m 10000,13911.6 -1056.97,215 1056.97,610.2 1057,-610.2 -1057,-215"
         id="path1412" />
    </clipPath>
    <linearGradient
       x1="0"
       y1="0"
       x2="1"
       y2="0"
       gradientUnits="userSpaceOnUse"
       gradientTransform="matrix(1764.16,-2809.58,-2809.58,-1764.16,9094.55,14529)"
       spreadMethod="pad"
       id="linearGradient1420">
      <stop
         style="stop-opacity:1;stop-color:#ff9afd"
         offset="0"
         id="stop1416" />
      <stop
         style="stop-opacity:1;stop-color:#6d3d9f"
         offset="1"
         id="stop1418" />
    </linearGradient>
    <clipPath
       clipPathUnits="userSpaceOnUse"
       id="clipPath1432">
      <path
         d="m 9256,8565 -66.91,38.6 -1139.74,658.2 -237.07,809.6 L 9256,8565"
         id="path1430" />
    </clipPath>
    <clipPath
       clipPathUnits="userSpaceOnUse"
       id="clipPath1452">
      <path
         d="m 8049.35,9261.8 -907.6,524.1 v 985.2 l 670.53,-699.7 237.07,-809.6"
         id="path1450" />
    </clipPath>
    <linearGradient
       x1="0"
       y1="0"
       x2="1"
       y2="0"
       gradientUnits="userSpaceOnUse"
       gradientTransform="matrix(3806,-310.361,-310.361,-3806,6302.9,10795.9)"
       spreadMethod="pad"
       id="linearGradient1460">
      <stop
         style="stop-opacity:1;stop-color:#9bf6f2"
         offset="0"
         id="stop1454" />
      <stop
         style="stop-opacity:1;stop-color:#61cfd4"
         offset="0.464824"
         id="stop1456" />
      <stop
         style="stop-opacity:1;stop-color:#4d88da"
         offset="1"
         id="stop1458" />
    </linearGradient>
    <clipPath
       clipPathUnits="userSpaceOnUse"
       id="clipPath1470">
      <path
         d="m 10744,8565 1443.7,1506.4 -237.1,-809.8 L 10744,8565"
         id="path1468" />
    </clipPath>
    <clipPath
       clipPathUnits="userSpaceOnUse"
       id="clipPath1486">
      <path
         d="m 11950.6,9261.6 237.1,809.8 670.5,699.7 0.5,-985.2 -908.1,-524.3"
         id="path1484" />
    </clipPath>
    <linearGradient
       x1="0"
       y1="0"
       x2="1"
       y2="0"
       gradientUnits="userSpaceOnUse"
       gradientTransform="matrix(-3473.86,-228.687,-228.687,3473.86,13128.5,10722.8)"
       spreadMethod="pad"
       id="linearGradient1492">
      <stop
         style="stop-opacity:1;stop-color:#ffe361"
         offset="0"
         id="stop1488" />
      <stop
         style="stop-opacity:1;stop-color:#f17070"
         offset="1"
         id="stop1490" />
    </linearGradient>
    <linearGradient
       spreadMethod="pad"
       y2="0"
       x2="1"
       y1="0"
       x1="0"
       gradientTransform="matrix(-3473.86,-228.687,-228.687,3473.86,13128.5,10722.8)"
       gradientUnits="userSpaceOnUse"
       id="linearGradient1842"
       xlink:href="#linearGradient1330"
       inkscape:collect="always" />
    <linearGradient
       spreadMethod="pad"
       y2="0"
       x2="1"
       y1="0"
       x1="0"
       gradientTransform="matrix(3806,-310.361,-310.361,-3806,6302.9,10795.9)"
       gradientUnits="userSpaceOnUse"
       id="linearGradient1844"
       xlink:href="#linearGradient1350"
       inkscape:collect="always" />
    <linearGradient
       spreadMethod="pad"
       y2="0"
       x2="1"
       y1="0"
       x1="0"
       gradientTransform="matrix(1764.16,-2809.58,-2809.58,-1764.16,9094.55,14529)"
       gradientUnits="userSpaceOnUse"
       id="linearGradient1846"
       xlink:href="#linearGradient1368"
       inkscape:collect="always" />
    <linearGradient
       spreadMethod="pad"
       y2="0"
       x2="1"
       y1="0"
       x1="0"
       gradientTransform="matrix(1764.16,-2809.58,-2809.58,-1764.16,9094.55,14529)"
       gradientUnits="userSpaceOnUse"
       id="linearGradient1848"
       xlink:href="#linearGradient1368"
       inkscape:collect="always" />
    <linearGradient
       spreadMethod="pad"
       y2="0"
       x2="1"
       y1="0"
       x1="0"
       gradientTransform="matrix(1764.16,-2809.58,-2809.58,-1764.16,9094.55,14529)"
       gradientUnits="userSpaceOnUse"
       id="linearGradient1850"
       xlink:href="#linearGradient1368"
       inkscape:collect="always" />
    <linearGradient
       spreadMethod="pad"
       y2="0"
       x2="1"
       y1="0"
       x1="0"
       gradientTransform="matrix(3806,-310.361,-310.361,-3806,6302.9,10795.9)"
       gradientUnits="userSpaceOnUse"
       id="linearGradient1852"
       xlink:href="#linearGradient1350"
       inkscape:collect="always" />
    <linearGradient
       spreadMethod="pad"
       y2="0"
       x2="1"
       y1="0"
       x1="0"
       gradientTransform="matrix(-3473.86,-228.687,-228.687,3473.86,13128.5,10722.8)"
       gradientUnits="userSpaceOnUse"
       id="linearGradient1854"
       xlink:href="#linearGradient1330"
       inkscape:collect="always" />
  </defs>
  <sodipodi:namedview
     inkscape:window-maximized="1"
     inkscape:window-y="-8"
     inkscape:window-x="-8"
     inkscape:window-height="1017"
     inkscape:window-width="1920"
     showgrid="false"
     inkscape:document-rotation="0"
     inkscape:current-layer="g1190"
     inkscape:document-units="mm"
     inkscape:cy="8.7204415"
     inkscape:cx="924.00762"
     inkscape:zoom="0.35"
     inkscape:pageshadow="2"
     inkscape:pageopacity="0.0"
     borderopacity="1.0"
     bordercolor="#666666"
     pagecolor="#ffffff"
     id="base" />
  <metadata
     id="metadata1175">
    <rdf:RDF>
      <cc:Work
         rdf:about="">
        <dc:format>image/svg+xml</dc:format>
        <dc:type
           rdf:resource="http://purl.org/dc/dcmitype/StillImage" />
        <dc:title></dc:title>
      </cc:Work>
    </rdf:RDF>
  </metadata>
  <g
     transform="translate(208.1913,13.646564)"
     id="layer1"
     inkscape:groupmode="layer"
     inkscape:label="Layer 1">
    <g
       transform="matrix(0.03527778,0,0,-0.03527778,-316.49097,432.15169)"
       id="g1190">
      <g
         transform="translate(-4071.4283,-2099.9999)"
         id="g1196">
        <g
           clip-path="url(#clipPath1202)"
           id="g1198">
          <path
             id="path1212"
             style="fill:url(#linearGradient1210);fill-opacity:1;fill-rule:nonzero;stroke:none"
             d="m 10000,8135.3 -810.91,468.3 66.91,-38.6 -1443.72,1506.4 -670.53,2290 v 725.2 L 8462.41,12324 C 8148.15,11078.7 9118.99,9182.9 10000,8565 v -429.7" />
        </g>
      </g>
      <g
         transform="translate(-4071.4283,-2099.9999)"
         id="g1214">
        <g
           clip-path="url(#clipPath1220)"
           id="g1216">
          <path
             id="path1230"
             style="fill:url(#linearGradient1228);fill-opacity:1;fill-rule:nonzero;stroke:none"
             d="m 11537.6,12323.9 c -45.7,181 -118.6,348.5 -222.9,496.1 -269.7,443.7 -757.6,740 -1314.7,740 -557.11,0 -1045.02,-296.3 -1314.7,-740 -104.28,-147.6 -177.19,-314.9 -222.89,-496 l -1320.66,762.6 651.35,376.1 2206.9,448.9 2206.9,-448.9 -1149.9,663.9 h 0.1 l 1148.7,-663 652.9,-377 -1321.1,-762.7" />
        </g>
      </g>
      <g
         transform="translate(-4071.4283,-2099.9999)"
         id="g1232">
        <g
           clip-path="url(#clipPath1238)"
           id="g1234">
          <path
             id="path1246"
             style="fill:url(#linearGradient1244);fill-opacity:1;fill-rule:nonzero;stroke:none"
             d="M 10000,8135.3 V 8565 c 881,617.9 1851.9,2513.6 1537.6,3758.9 l 1321.1,762.7 v -723.8 l -671,-2291.4 L 10744,8565 l 1206.6,696.6 v 0 l 908.1,524.3 -1270.3,-733.5 -1588.4,-917.1" />
        </g>
      </g>
      <g
         transform="translate(-4071.4283,-2099.9999)"
         id="g1248">
        <g
           clip-path="url(#clipPath1254)"
           id="g1250">
          <path
             id="path1264"
             style="fill:url(#linearGradient1262);fill-opacity:1;fill-rule:nonzero;stroke:none"
             d="m 10000,8565 c -881.01,617.9 -1851.85,2513.7 -1537.59,3759 l 26.71,-15.5 c -17.43,-92.6 -26.55,-188.2 -26.55,-285.9 0,-43.3 2.24,-86 5.73,-128.4 l -0.04,0.1 0.2,-2.1 c 1.31,-15.6 2.77,-31.1 4.55,-46.6 C 8573.53,10815.6 9363.93,9420 10000,8910.7 V 8565" />
        </g>
      </g>
      <g
         transform="translate(-4071.4283,-2099.9999)"
         id="g1266">
        <g
           clip-path="url(#clipPath1272)"
           id="g1268">
          <path
             id="path1280"
             style="fill:url(#linearGradient1278);fill-opacity:1;fill-rule:nonzero;stroke:none"
             d="m 11510.9,12308.4 c -34.6,184.3 -102.2,356.9 -196.2,511.6 104.3,-147.6 177.2,-315.1 222.9,-496.1 l -26.7,-15.5 m -3021.78,0.1 -26.71,15.5 c 45.7,181.1 118.61,348.4 222.89,496 -94.02,-154.6 -161.52,-327.3 -196.18,-511.5" />
        </g>
      </g>
      <g
         transform="translate(-4071.4283,-2099.9999)"
         id="g1282">
        <g
           clip-path="url(#clipPath1288)"
           id="g1284">
          <path
             id="path1296"
             style="fill:url(#linearGradient1294);fill-opacity:1;fill-rule:nonzero;stroke:none"
             d="m 10000,8565 v 0 345.7 c 636.1,509.3 1426.5,1904.9 1527,2934.9 1.8,15.5 3.2,31 4.5,46.6 l 0.2,2.1 v -0.1 c 3.5,42.4 5.7,85.1 5.7,128.4 0,97.7 -9.1,193.2 -26.5,285.8 l 26.7,15.5 C 11851.9,11078.6 10881,9182.9 10000,8565" />
        </g>
      </g>
      <path
         id="path1298"
         style="fill:#ffffff;fill-opacity:1;fill-rule:nonzero;stroke:none"
         d="m 7460.2717,9794.3004 v -0.1 c 3.5,42.4 5.7,85.1 5.7,128.4 0,849.0996 -688.3,1537.3996 -1537.4,1537.3996 -849.09,0 -1537.43,-688.3 -1537.43,-1537.3996 0,-43.3 2.24,-86 5.73,-128.4 l -0.04,0.1 0.2,-2.1 c 1.31,-15.6 2.77,-31.1 4.55,-46.6 100.52,-1030 890.92,-2425.6 1526.99,-2934.9 636.1,509.3 1426.5,1904.9 1527,2934.9 1.8,15.5 3.2,31 4.5,46.6 l 0.2,2.1" />
      <path
         id="path1300"
         style="fill:#808080;fill-opacity:1;fill-rule:nonzero;stroke:none"
         d="m 6803.3717,9922.6004 c 0,-483.2 -391.7,-874.8 -874.8,-874.8 -483.12,0 -874.77,391.6 -874.77,874.8 0,483.0996 391.65,874.6996 874.77,874.6996 483.1,0 874.8,-391.6 874.8,-874.6996" />
      <g
         transform="translate(-4071.4283,-2099.9999)"
         id="g1302">
        <g
           clip-path="url(#clipPath1308)"
           id="g1304">
          <path
             id="path1316"
             style="fill:url(#linearGradient1314);fill-opacity:1;fill-rule:nonzero;stroke:none"
             d="m 10000,11262.9 c -419.54,0 -759.64,340.1 -759.64,759.7 0,419.5 340.1,759.6 759.64,759.6 419.5,0 759.6,-340.1 759.6,-759.6 0,-419.6 -340.1,-759.7 -759.6,-759.7" />
        </g>
      </g>
      <g
         transform="translate(-4071.4283,-2099.9999)"
         id="g1318">
        <g
           clip-path="url(#clipPath1324)"
           id="g1320">
          <path
             id="path1332"
             style="fill:url(#linearGradient1842);fill-opacity:1;fill-rule:nonzero;stroke:none"
             d="m 12858.7,9785.9 -0.5,985.2 -670.5,-699.7 671,2291.4 V 9785.9" />
        </g>
      </g>
      <path
         id="path1334"
         style="fill:#ffffff;fill-opacity:1;fill-rule:nonzero;stroke:none"
         d="m 3977.9717,7161.6004 -908.06,524.3 908.06,-524.3 v 0 m -908.06,524.3 v 0 2576.8996 l 0.41,-1.4 V 8671.1004 l -0.41,-985.2" />
      <g
         transform="translate(-4071.4283,-2099.9999)"
         id="g1336">
        <g
           clip-path="url(#clipPath1342)"
           id="g1338">
          <path
             id="path1352"
             style="fill:url(#linearGradient1844);fill-opacity:1;fill-rule:nonzero;stroke:none"
             d="m 7812.28,10071.4 -670.53,699.7 v 1590.3 l 670.53,-2290" />
        </g>
      </g>
      <path
         id="path1354"
         style="fill:#ffffff;fill-opacity:1;fill-rule:nonzero;stroke:none"
         d="m 3721.6717,11362.7 1149.93,663.9 -1149.93,-663.9 v 0" />
      <g
         transform="translate(-4071.4283,-2099.9999)"
         id="g1356">
        <g
           clip-path="url(#clipPath1362)"
           id="g1358">
          <path
             id="path1370"
             style="fill:url(#linearGradient1846);fill-opacity:1;fill-rule:nonzero;stroke:none"
             d="m 7793.1,13462.7 1149.93,663.9 1056.97,-215 -2206.9,-448.9" />
        </g>
      </g>
      <path
         id="path1372"
         style="fill:#ffffff;fill-opacity:1;fill-rule:nonzero;stroke:none"
         d="m 6985.6717,12026.6 -1057.1,610.2 1057.1,-610.2" />
      <g
         transform="translate(-4071.4283,-2099.9999)"
         id="g1374">
        <g
           clip-path="url(#clipPath1380)"
           id="g1376">
          <path
             id="path1388"
             style="fill:url(#linearGradient1848);fill-opacity:1;fill-rule:nonzero;stroke:none"
             d="m 11057,14126.6 -1057,610.2 1057.1,-610.2 h -0.1" />
        </g>
      </g>
      <g
         transform="translate(-4071.4283,-2099.9999)"
         id="g1390">
        <g
           clip-path="url(#clipPath1396)"
           id="g1392">
          <path
             id="path1404"
             style="fill:url(#linearGradient1850);fill-opacity:1;fill-rule:nonzero;stroke:none"
             d="m 12206.9,13462.7 -2206.9,448.9 1057,215 1149.9,-663.9" />
        </g>
      </g>
      <path
         id="path1406"
         style="fill:#ffffff;fill-opacity:1;fill-rule:nonzero;stroke:none"
         d="m 4871.6017,12026.6 h -0.16 l 1057.13,610.2 -1056.97,-610.2" />
      <g
         transform="translate(-4071.4283,-2099.9999)"
         id="g1408">
        <g
           clip-path="url(#clipPath1414)"
           id="g1410">
          <path
             id="path1422"
             style="fill:url(#linearGradient1420);fill-opacity:1;fill-rule:nonzero;stroke:none"
             d="m 10000,13911.6 -1056.97,215 1056.97,610.2 1057,-610.2 -1057,-215" />
        </g>
      </g>
      <path
         id="path1424"
         style="fill:#ffffff;fill-opacity:1;fill-rule:nonzero;stroke:none"
         d="m 5117.6617,6503.6004 -1139.69,658 -0.05,0.2 1139.74,-658.2" />
      <g
         transform="translate(-4071.4283,-2099.9999)"
         id="g1426">
        <g
           clip-path="url(#clipPath1432)"
           id="g1428">
          <path
             id="path1442"
             style="fill:url(#linearGradient1852);fill-opacity:1;fill-rule:nonzero;stroke:none"
             d="m 9256,8565 -66.91,38.6 -1139.74,658.2 -237.07,809.6 L 9256,8565" />
        </g>
      </g>
      <path
         id="path1444"
         style="fill:#ffffff;fill-opacity:1;fill-rule:nonzero;stroke:none"
         d="m 3977.9717,7161.6004 -908.06,524.3 0.41,985.2 v -985.2 l 907.6,-524.1 0.05,-0.2" />
      <g
         transform="translate(-4071.4283,-2099.9999)"
         id="g1446">
        <g
           clip-path="url(#clipPath1452)"
           id="g1448">
          <path
             id="path1462"
             style="fill:url(#linearGradient1460);fill-opacity:1;fill-rule:nonzero;stroke:none"
             d="m 8049.35,9261.8 -907.6,524.1 v 985.2 l 670.53,-699.7 237.07,-809.6" />
        </g>
      </g>
      <g
         transform="translate(-4071.4283,-2099.9999)"
         id="g1464">
        <g
           clip-path="url(#clipPath1470)"
           id="g1466">
          <path
             id="path1478"
             style="fill:url(#linearGradient1854);fill-opacity:1;fill-rule:nonzero;stroke:none"
             d="m 10744,8565 1443.7,1506.4 -237.1,-809.8 L 10744,8565" />
        </g>
      </g>
      <g
         transform="translate(-4071.4283,-2099.9999)"
         id="g1480">
        <g
           clip-path="url(#clipPath1486)"
           id="g1482">
          <path
             id="path1494"
             style="fill:url(#linearGradient1492);fill-opacity:1;fill-rule:nonzero;stroke:none"
             d="m 11950.6,9261.6 237.1,809.8 670.5,699.7 0.5,-985.2 -908.1,-524.3" />
        </g>
      </g>
      <text
         transform="scale(1,-1)"
         id="text1836"
         y="-8289.9678"
         x="14255.682"
         style="font-style:normal;font-weight:normal;font-size:3500px;line-height:1.25;font-family:sans-serif;fill:#8534ae;fill-opacity:1;stroke:none;stroke-width:7.5"
         xml:space="preserve"><tspan
           style="font-style:normal;font-variant:normal;font-weight:normal;font-stretch:normal;font-size:3500px;font-family:Aileron;-inkscape-font-specification:Aileron;fill:#8534ae;fill-opacity:1;stroke-width:7.5"
           y="-8289.9678"
           x="14255.682"
           id="tspan1834"
           sodipodi:role="line">Geo</tspan></text>
      <text
         transform="scale(1,-1)"
         id="text1840"
         y="-8349.9678"
         x="9084.9678"
         style="font-style:normal;font-weight:normal;font-size:3500px;line-height:1.25;font-family:sans-serif;fill:#8534ae;fill-opacity:1;stroke:none;stroke-width:7.5"
         xml:space="preserve"><tspan
           style="font-style:normal;font-variant:normal;font-weight:normal;font-stretch:normal;font-size:3500px;font-family:Aileron;-inkscape-font-specification:Aileron;fill:#8534ae;fill-opacity:1;stroke-width:7.5"
           y="-8349.9678"
           x="9084.9678"
           id="tspan1838"
           sodipodi:role="line">Act</tspan></text>
    </g>
  </g>
</svg>
